<svg xmlns="http://www.w3.org/2000/svg" viewBox="0 0 256 256" role="img" aria-label="frame-fab monochrome">
  <title>frame-fab (mono)</title>
  <desc>单色 logo, 用于水印 / 打印 / 单色场景</desc>
  <rect x="16" y="16" width="224" height="224" rx="56" fill="currentColor" opacity="0.06"/>
  <rect x="42" y="62" width="56" height="132" rx="10" fill="none" stroke="currentColor" stroke-width="5"/>
  <rect x="100" y="50" width="56" height="156" rx="10" fill="none" stroke="currentColor" stroke-width="6"/>
  <rect x="158" y="62" width="56" height="132" rx="10" fill="none" stroke="currentColor" stroke-width="5"/>
  <g fill="currentColor" opacity="0.7">
    <rect x="52" y="76" width="6" height="6" rx="2"/>
    <rect x="74" y="76" width="6" height="6" rx="2"/>
    <rect x="110" y="64" width="6" height="6" rx="2"/>
    <rect x="132" y="64" width="6" height="6" rx="2"/>
    <rect x="168" y="76" width="6" height="6" rx="2"/>
    <rect x="190" y="76" width="6" height="6" rx="2"/>
    <rect x="52" y="174" width="6" height="6" rx="2"/>
    <rect x="74" y="174" width="6" height="6" rx="2"/>
    <rect x="110" y="186" width="6" height="6" rx="2"/>
    <rect x="132" y="186" width="6" height="6" rx="2"/>
    <rect x="168" y="174" width="6" height="6" rx="2"/>
    <rect x="190" y="174" width="6" height="6" rx="2"/>
  </g>
  <g transform="translate(128 128)">
    <circle r="14" fill="currentColor"/>
    <circle r="6" fill="currentColor" opacity="0.2"/>
  </g>
</svg>
